{"title":"The Walking Dead S05e06 Consumed - Consumati  [XviD- italian eng","uid":11523719,"size":664091516,"categoryP":"video","categoryS":"tv_shows","magnet":"?xt=urn:btih:0b5031e5b9c75ea4feff9f88b433915eae7c86cc&amp;dn=The+Walking+Dead+S05e06+Consumed+-+Consumati++%5BXviD-+italian+eng&amp;tr=udp%3A%2F%2Ftracker.openbittorrent.com%3A80&amp;tr=udp%3A%2F%2Fopen.demonii.com%3A1337&amp;tr=udp%3A%2F%2Ftracker.coppersurfer.tk%3A6969&amp;tr=udp%3A%2F%2Fexodus.desync.com%3A6969","seeders":7,"leechers":1,"uploader":"robbyrs4","files":4,"time":1416506274,"description":"The Walking Dead S05e06 Consumed - Consumati  [XviD- italian english Ac3 - Sub ita Eng] MIRCrew\n\n[img]http://s19.postimg.org/mqmhlwtlf/Mircrew_original_red_skull.png[/img]\n\n\n[b][color=red]The Walking Dead stagione 5\n\n1 \tNo Sanctuary \t                Preda e cacciatore \t\n2 \tStrangers \t                        Sconosciuti \t\n3 \tFour Walls and a Roof \tUn tetto e quattro mura \t\n4 \tSlabtown                           Il prezzo della salvezza \n5                Self Help                               sabotaggio\n6                Consumed                           Consumati\n\n[IMG]http://i.imgur.com/Qqj7128.jpg[/img]\n &lt;a href=&quot;\nhttp://s19.postimg.org/5wfbi64ib/vlcsnap_2014_11_10_16h30m11s112.png[/img]&quot; rel=&quot;nofollow&quot; target=&quot;_NEW&quot;&gt;\nhttp://s19.postimg.org/5wfbi64ib/vlcsnap_2014_11_10_16h30m11s112.png[/img]&lt;/a&gt; &lt;a href=&quot;\nhttp://s19.postimg.org/6xfk7alhv/vlcsnap_2014_11_10_16h30m32s92.png[/img]&quot; rel=&quot;nofollow&quot; target=&quot;_NEW&quot;&gt;\nhttp://s19.postimg.org/6xfk7alhv/vlcsnap_2014_11_10_16h30m32s92.png[/img]&lt;/a&gt; &lt;a href=&quot;\nhttp://s19.postimg.org/ddoixdu1f/vlcsnap_2014_11_10_16h30m51s26.png[/img]&quot; rel=&quot;nofollow&quot; target=&quot;_NEW&quot;&gt;\nhttp://s19.postimg.org/ddoixdu1f/vlcsnap_2014_11_10_16h30m51s26.png[/img]&lt;/a&gt;\n\n[spoiler]Generale\nGeneral\nComplete name                            : The.Walking.Dead.S05E06 Consumati - .BDrip.Ita.Eng.Ac3-5.1.Sub.ita.eng.mircrewThe.Walking.Dead.S05E06 Consumati - .BDrip.Ita.Eng.Ac3-5.1.Sub.ita.eng.mircrew.avi\nFormat                                   : AVI\nFormat/Info                              : Audio Video Interleave\nFile size                                : 633 MiB\nDuration                                 : 41mn 8s\nOverall bit rate                         : 2 152 Kbps\nWriting application                      : VirtualDubMod 1.5.10.2 (build 2540/release)\nWriting library                          : VirtualDubMod build 2540/release\n\nVideo\nID                                       : 0\nFormat                                   : MPEG-4 Visual\nFormat profile                           : Simple@L3\nFormat settings, BVOP                    : No\nFormat settings, QPel                    : No\nFormat settings, GMC                     : No warppoints\nFormat settings, Matrix                  : Default (H.263)\nCodec ID                                 : XVID\nCodec ID/Hint                            : XviD\nDuration                                 : 41mn 8s\nBit rate                                 : 1 497 Kbps\nWidth                                    : 720 pixels\nHeight                                   : 404 pixels\nDisplay aspect ratio                     : 16:9\nFrame rate                               : 25.000 fps\nColor space                              : YUV\nChroma subsampling                       : 4:2:0\nBit depth                                : 8 bits\nScan type                                : Progressive\nCompression mode                         : Lossy\nBits/(Pixel*Frame)                       : 0.206\nStream size                              : 441 MiB (70%)\nWriting library                          : XviD 64\n\nAudio #1\nID                                       : 1\nFormat                                   : AC-3\nFormat/Info                              : Audio Coding 3\nMode extension                           : CM (complete main)\nCodec ID                                 : 2000\nDuration                                 : 41mn 8s\nBit rate mode                            : Constant\nBit rate                                 : 256 Kbps\nChannel(s)                               : 2 channels\nChannel positions                        : Front: L R\nSampling rate                            : 48.0 KHz\nBit depth                                : 16 bits\nCompression mode                         : Lossy\nStream size                              : 75.3 MiB (12%)\nAlignment                                : Split accross interleaves\nInterleave, duration                     : 40 ms (1.00 video frame)\nInterleave, preload duration             : 500 ms\n\nAudio #2\nID                                       : 2\nFormat                                   : AC-3\nFormat/Info                              : Audio Coding 3\nMode extension                           : CM (complete main)\nCodec ID                                 : 2000\nDuration                                 : 41mn 8s\nBit rate mode                            : Constant\nBit rate                                 : 384 Kbps\nChannel(s)                               : 6 channels\nChannel positions                        : Front: L C R, Side: L R, LFE\nSampling rate                            : 48.0 KHz\nBit depth                                : 16 bits\nCompression mode                         : Lossy\nStream size                              : 113 MiB (18%)\nAlignment                                : Split accross interleaves\nInterleave, duration                     : 40 ms (1.00 video frame)\nInterleave, preload duration             : 500 ms\n\n[/spoiler]\n[/color][/b]","torrent":{"xt":"urn:btih:0b5031e5b9c75ea4feff9f88b433915eae7c86cc","amp;dn":"The+Walking+Dead+S05e06+Consumed+-+Consumati++%5BXviD-+italian+eng","amp;tr":["udp%3A%2F%2Ftracker.openbittorrent.com%3A80","udp%3A%2F%2Fopen.demonii.com%3A1337","udp%3A%2F%2Ftracker.coppersurfer.tk%3A6969","udp%3A%2F%2Fexodus.desync.com%3A6969"],"infoHash":"0b5031e5b9c75ea4feff9f88b433915eae7c86cc","infoHashBuffer":{"type":"Buffer","data":[11,80,49,229,185,199,94,164,254,255,159,136,180,51,145,94,174,124,134,204]},"announce":[],"urlList":[]}}